<svg xmlns="http://www.w3.org/2000/svg" xmlns:xlink="http://www.w3.org/1999/xlink" id="processonSvg1000" viewBox="75.0 161.5 788.0 514.5" width="788.0" height="514.5"><defs id="ProcessOnDefs1001"><marker id="ProcessOnMarker1012" markerUnits="userSpaceOnUse" orient="auto" markerWidth="16.23606797749979" markerHeight="10.550836550532098" viewBox="-1.0 -1.3763819204711736 16.23606797749979 10.550836550532098" refX="-1.0" refY="3.8990363547948754"><path id="ProcessOnPath1013" d="M12.0 3.8990363547948754L0.0 7.798072709589751V0.0Z" stroke="#323232" stroke-width="2.0" fill="#323232" transform="matrix(1.0,0.0,0.0,1.0,0.0,0.0)"/></marker><marker id="ProcessOnMarker1019" markerUnits="userSpaceOnUse" orient="auto" markerWidth="16.23606797749979" markerHeight="10.550836550532098" viewBox="-1.0 -1.3763819204711736 16.23606797749979 10.550836550532098" refX="-1.0" refY="3.8990363547948754"><path id="ProcessOnPath1020" d="M12.0 3.8990363547948754L0.0 7.798072709589751V0.0Z" stroke="#323232" stroke-width="2.0" fill="#323232" transform="matrix(1.0,0.0,0.0,1.0,0.0,0.0)"/></marker><marker id="ProcessOnMarker1030" markerUnits="userSpaceOnUse" orient="auto" markerWidth="16.23606797749979" markerHeight="10.550836550532098" viewBox="-1.0 -1.3763819204711736 16.23606797749979 10.550836550532098" refX="-1.0" refY="3.8990363547948754"><path id="ProcessOnPath1031" d="M12.0 3.8990363547948754L0.0 7.798072709589751V0.0Z" stroke="#323232" stroke-width="2.0" fill="#323232" transform="matrix(1.0,0.0,0.0,1.0,0.0,0.0)"/></marker><marker id="ProcessOnMarker1037" markerUnits="userSpaceOnUse" orient="auto" markerWidth="16.23606797749979" markerHeight="10.550836550532098" viewBox="-1.0 -1.3763819204711736 16.23606797749979 10.550836550532098" refX="-1.0" refY="3.8990363547948754"><path id="ProcessOnPath1038" d="M12.0 3.8990363547948754L0.0 7.798072709589751V0.0Z" stroke="#323232" stroke-width="2.0" fill="#323232" transform="matrix(1.0,0.0,0.0,1.0,0.0,0.0)"/></marker><marker id="ProcessOnMarker1057" markerUnits="userSpaceOnUse" orient="auto" markerWidth="16.23606797749979" markerHeight="10.550836550532098" viewBox="-1.0 -1.3763819204711736 16.23606797749979 10.550836550532098" refX="-1.0" refY="3.8990363547948754"><path id="ProcessOnPath1058" d="M12.0 3.8990363547948754L0.0 7.798072709589751V0.0Z" stroke="#323232" stroke-width="2.0" fill="#323232" transform="matrix(1.0,0.0,0.0,1.0,0.0,0.0)"/></marker><marker id="ProcessOnMarker1074" markerUnits="userSpaceOnUse" orient="auto" markerWidth="16.23606797749979" markerHeight="10.550836550532098" viewBox="-1.0 -1.3763819204711736 16.23606797749979 10.550836550532098" refX="-1.0" refY="3.8990363547948754"><path id="ProcessOnPath1075" d="M12.0 3.8990363547948754L0.0 7.798072709589751V0.0Z" stroke="#323232" stroke-width="2.0" fill="#323232" transform="matrix(1.0,0.0,0.0,1.0,0.0,0.0)"/></marker></defs><g id="ProcessOnG1002"><path id="ProcessOnPath1003" d="M75.0 161.5H863.0V676.0H75.0V161.5Z" fill="none"/><g id="ProcessOnG1004"><g id="ProcessOnG1005" transform="matrix(1.0,0.0,0.0,1.0,95.0,281.0)" opacity="1.0"><path id="ProcessOnPath1006" d="M0.0 40.0L64.5 0.0L129.0 40.0L64.5 80.0L0.0 40.0Z" stroke="#000000" stroke-width="2.0" stroke-dasharray="none" opacity="1.0" fill="#ffffff"/><g id="ProcessOnG1007" transform="matrix(1.0,0.0,0.0,1.0,10.0,23.75)"><text id="ProcessOnText1008" fill="#000000" font-weight="bold" font-style="normal" text-decoration="blink" font-family="Arial,宋体" text-anchor="middle" font-size="13" x="54.5" y="13.325">belongs to an O</text><text id="ProcessOnText1009" fill="#000000" font-weight="bold" font-style="normal" text-decoration="blink" font-family="Arial,宋体" text-anchor="middle" font-size="13" x="54.5" y="29.575">bject?</text></g></g><g id="ProcessOnG1010"><path id="ProcessOnPath1011" d="M224.0 321.0L272.0 321.0L272.0 321.0L304.7639320225002 321.0" stroke="#323232" stroke-width="2.0" stroke-dasharray="none" fill="none" marker-end="url(#ProcessOnMarker1012)"/><g id="ProcessOnG1014" transform="matrix(1.0,0.0,0.0,1.0,264.38196601125014,311.625)"><path id="ProcessOnPath1015" d="M0 0H23.0V18.75H0Z" fill="#fff" transform="matrix(1.0,0.0,0.0,1.0,-11.5,0.0)"/><text id="ProcessOnText1016" fill="#000000" font-weight="normal" font-style="normal" text-decoration="blink" font-family="Arial,宋体" text-anchor="middle" font-size="15" x="0.0" y="15.375">NO</text></g></g><g id="ProcessOnG1017"><path id="ProcessOnPath1018" d="M159.5 361.0L159.5 439.5L304.7639320225002 439.5" stroke="#323232" stroke-width="2.0" stroke-dasharray="none" fill="none" marker-end="url(#ProcessOnMarker1019)"/><g id="ProcessOnG1021" transform="matrix(1.0,0.0,0.0,1.0,192.8819660112501,430.125)"><path id="ProcessOnPath1022" d="M0 0H25.0V18.75H0Z" fill="#fff" transform="matrix(1.0,0.0,0.0,1.0,-12.5,0.0)"/><text id="ProcessOnText1023" fill="#000000" font-weight="normal" font-style="normal" text-decoration="blink" font-family="Arial,宋体" text-anchor="middle" font-size="15" x="0.0" y="15.375">YES</text></g></g><g id="ProcessOnG1024" transform="matrix(1.0,0.0,0.0,1.0,320.0,286.0)" opacity="1.0"><path id="ProcessOnPath1025" d="M0.0 35.0L58.5 0.0L117.0 35.0L58.5 70.0L0.0 35.0Z" stroke="#000000" stroke-width="2.0" stroke-dasharray="none" opacity="1.0" fill="#ffffff"/><g id="ProcessOnG1026" transform="matrix(1.0,0.0,0.0,1.0,10.0,25.625)"><text id="ProcessOnText1027" fill="#000000" font-weight="bold" font-style="normal" text-decoration="blink" font-family="Arial,宋体" text-anchor="middle" font-size="15" x="48.5" y="15.375">strict mode?</text></g></g><g id="ProcessOnG1028"><path id="ProcessOnPath1029" d="M437.0 321.0L505.5 321.0L505.5 321.0L558.7639320225002 321.0" stroke="#323232" stroke-width="2.0" stroke-dasharray="none" fill="none" marker-end="url(#ProcessOnMarker1030)"/><g id="ProcessOnG1032" transform="matrix(1.0,0.0,0.0,1.0,497.8819660112501,311.625)"><path id="ProcessOnPath1033" d="M0 0H25.0V18.75H0Z" fill="#fff" transform="matrix(1.0,0.0,0.0,1.0,-12.5,0.0)"/><text id="ProcessOnText1034" fill="#000000" font-weight="normal" font-style="normal" text-decoration="blink" font-family="Arial,宋体" text-anchor="middle" font-size="15" x="0.0" y="15.375">YES</text></g></g><g id="ProcessOnG1035"><path id="ProcessOnPath1036" d="M378.5 286.0L378.5 202.0L558.7639320225002 202.0" stroke="#323232" stroke-width="2.0" stroke-dasharray="none" fill="none" marker-end="url(#ProcessOnMarker1037)"/><g id="ProcessOnG1039" transform="matrix(1.0,0.0,0.0,1.0,426.6319660112501,192.625)"><path id="ProcessOnPath1040" d="M0 0H23.0V18.75H0Z" fill="#fff" transform="matrix(1.0,0.0,0.0,1.0,-11.5,0.0)"/><text id="ProcessOnText1041" fill="#000000" font-weight="normal" font-style="normal" text-decoration="blink" font-family="Arial,宋体" text-anchor="middle" font-size="15" x="0.0" y="15.375">NO</text></g></g><g id="ProcessOnG1042" transform="matrix(1.0,0.0,0.0,1.0,574.0,300.5)" opacity="1.0"><path id="ProcessOnPath1043" d="M0.0 0.0L112.0 0.0L112.0 41.0L0.0 41.0Z" stroke="#323232" stroke-width="2.0" stroke-dasharray="none" opacity="1.0" fill="#ffffff"/><g id="ProcessOnG1044" transform="matrix(1.0,0.0,0.0,1.0,10.0,11.125)"><text id="ProcessOnText1045" fill="#000000" font-weight="normal" font-style="normal" text-decoration="blink" font-family="Arial,宋体" text-anchor="middle" font-size="15" x="46.0" y="15.375">undefined</text></g></g><g id="ProcessOnG1046" transform="matrix(1.0,0.0,0.0,1.0,574.0,181.5)" opacity="1.0"><path id="ProcessOnPath1047" d="M0.0 0.0L112.0 0.0L112.0 41.0L0.0 41.0Z" stroke="#323232" stroke-width="2.0" stroke-dasharray="none" opacity="1.0" fill="#ffffff"/><g id="ProcessOnG1048" transform="matrix(1.0,0.0,0.0,1.0,10.0,1.75)"><text id="ProcessOnText1049" fill="#000000" font-weight="normal" font-style="normal" text-decoration="blink" font-family="Arial,宋体" text-anchor="middle" font-size="15" x="46.0" y="15.375">window || o</text><text id="ProcessOnText1050" fill="#000000" font-weight="normal" font-style="normal" text-decoration="blink" font-family="Arial,宋体" text-anchor="middle" font-size="15" x="46.0" y="34.125">uter context</text></g></g><g id="ProcessOnG1051" transform="matrix(1.0,0.0,0.0,1.0,320.0,406.0)" opacity="1.0"><path id="ProcessOnPath1052" d="M0.0 33.5L58.5 0.0L117.0 33.5L58.5 67.0L0.0 33.5Z" stroke="#323232" stroke-width="2.0" stroke-dasharray="none" opacity="1.0" fill="#ffffff"/><g id="ProcessOnG1053" transform="matrix(1.0,0.0,0.0,1.0,10.0,24.125)"><text id="ProcessOnText1054" fill="#000000" font-weight="normal" font-style="normal" text-decoration="blink" font-family="Arial,宋体" text-anchor="middle" font-size="15" x="48.5" y="15.375">ES6?</text></g></g><g id="ProcessOnG1055"><path id="ProcessOnPath1056" d="M437.0 439.5L505.5 439.5L505.5 439.5L558.7639320225002 439.5" stroke="#323232" stroke-width="2.0" stroke-dasharray="none" fill="none" marker-end="url(#ProcessOnMarker1057)"/><g id="ProcessOnG1059" transform="matrix(1.0,0.0,0.0,1.0,497.8819660112501,431.375)"><path id="ProcessOnPath1060" d="M0 0H20.0V16.25H0Z" fill="#fff" transform="matrix(1.0,0.0,0.0,1.0,-10.0,0.0)"/><text id="ProcessOnText1061" fill="#000000" font-weight="normal" font-style="normal" text-decoration="blink" font-family="Arial,宋体" text-anchor="middle" font-size="13" x="0.0" y="13.325">NO</text></g></g><g id="ProcessOnG1062" transform="matrix(1.0,0.0,0.0,1.0,574.0,419.0)" opacity="1.0"><path id="ProcessOnPath1063" d="M0.0 0.0L112.0 0.0L112.0 41.0L0.0 41.0Z" stroke="#323232" stroke-width="2.0" stroke-dasharray="none" opacity="1.0" fill="#ffffff"/><g id="ProcessOnG1064" transform="matrix(1.0,0.0,0.0,1.0,10.0,1.75)"><text id="ProcessOnText1065" fill="#000000" font-weight="normal" font-style="normal" text-decoration="blink" font-family="Arial,宋体" text-anchor="middle" font-size="15" x="46.0" y="15.375">normal func</text><text id="ProcessOnText1066" fill="#000000" font-weight="normal" font-style="normal" text-decoration="blink" font-family="Arial,宋体" text-anchor="middle" font-size="15" x="46.0" y="34.125">tion</text></g></g><g id="ProcessOnG1067" transform="matrix(1.0,0.0,0.0,1.0,322.5,537.5)" opacity="1.0"><path id="ProcessOnPath1068" d="M0.0 0.0L112.0 0.0L112.0 41.0L0.0 41.0Z" stroke="#323232" stroke-width="2.0" stroke-dasharray="none" opacity="1.0" fill="#ffffff"/><g id="ProcessOnG1069" transform="matrix(1.0,0.0,0.0,1.0,10.0,1.75)"><text id="ProcessOnText1070" fill="#000000" font-weight="normal" font-style="normal" text-decoration="blink" font-family="Arial,宋体" text-anchor="middle" font-size="15" x="46.0" y="15.375">Arrow functi</text><text id="ProcessOnText1071" fill="#000000" font-weight="normal" font-style="normal" text-decoration="blink" font-family="Arial,宋体" text-anchor="middle" font-size="15" x="46.0" y="34.125">on</text></g></g><g id="ProcessOnG1072"><path id="ProcessOnPath1073" d="M378.5 473.0L378.5 505.25L378.5 505.25L378.5 522.2639320225002" stroke="#323232" stroke-width="2.0" stroke-dasharray="none" fill="none" marker-end="url(#ProcessOnMarker1074)"/><g id="ProcessOnG1076" transform="matrix(1.0,0.0,0.0,1.0,378.5,489.5069660112501)"><path id="ProcessOnPath1077" d="M0 0H22.0V16.25H0Z" fill="#fff" transform="matrix(1.0,0.0,0.0,1.0,-11.0,0.0)"/><text id="ProcessOnText1078" fill="#000000" font-weight="normal" font-style="normal" text-decoration="blink" font-family="Arial,宋体" text-anchor="middle" font-size="13" x="0.0" y="13.325">YES</text></g></g><g id="ProcessOnG1079"><path id="ProcessOnPath1080" d="M378.5 578.5L378.5 597.0L378.5 597.0L378.5 615.5" stroke="#323232" stroke-width="2.0" stroke-dasharray="none" fill="none"/></g><g id="ProcessOnG1081" transform="matrix(1.0,0.0,0.0,1.0,304.75,615.5)" opacity="1.0"><path id="ProcessOnPath1082" d="M0.0 0.0L147.5 0.0L147.5 40.5L0.0 40.5Z" stroke="#323232" stroke-width="2.0" stroke-dasharray="none" opacity="1.0" fill="#ffffff"/><g id="ProcessOnG1083" transform="matrix(1.0,0.0,0.0,1.0,10.0,1.5)"><text id="ProcessOnText1084" fill="#000000" font-weight="normal" font-style="normal" text-decoration="blink" font-family="Arial,宋体" text-anchor="middle" font-size="15" x="63.75" y="15.375">this inherit from </text><text id="ProcessOnText1085" fill="#000000" font-weight="normal" font-style="normal" text-decoration="blink" font-family="Arial,宋体" text-anchor="middle" font-size="15" x="63.75" y="34.125">outer context</text></g></g><g id="ProcessOnG1086"><path id="ProcessOnPath1087" d="M686.0 439.5L708.5 439.5L708.5 439.5L731.0 439.5" stroke="#323232" stroke-width="2.0" stroke-dasharray="none" fill="none"/></g><g id="ProcessOnG1088" transform="matrix(1.0,0.0,0.0,1.0,731.0,419.0)" opacity="1.0"><path id="ProcessOnPath1089" d="M0.0 0.0L112.0 0.0L112.0 41.0L0.0 41.0Z" stroke="#323232" stroke-width="2.0" stroke-dasharray="none" opacity="1.0" fill="#ffffff"/><g id="ProcessOnG1090" transform="matrix(1.0,0.0,0.0,1.0,10.0,1.75)"><text id="ProcessOnText1091" fill="#000000" font-weight="normal" font-style="normal" text-decoration="blink" font-family="Arial,宋体" text-anchor="middle" font-size="15" x="46.0" y="15.375">follow the O</text><text id="ProcessOnText1092" fill="#000000" font-weight="normal" font-style="normal" text-decoration="blink" font-family="Arial,宋体" text-anchor="middle" font-size="15" x="46.0" y="34.125">bject</text></g></g><g id="ProcessOnG1093" transform="matrix(1.0,0.0,0.0,1.0,219.0,181.5)" opacity="1.0"><path id="ProcessOnPath1094" d="M0.0 0.0L112.0 0.0L112.0 60.5L0.0 60.5Z" stroke="#323232" stroke-width="2.0" stroke-dasharray="none" opacity="1.0" fill="#ffffff"/><g id="ProcessOnG1095" transform="matrix(1.0,0.0,0.0,1.0,10.0,2.125)"><text id="ProcessOnText1096" fill="#000000" font-weight="normal" font-style="normal" text-decoration="blink" font-family="Arial,宋体" text-anchor="middle" font-size="15" x="46.0" y="15.375">strict mode </text><text id="ProcessOnText1097" fill="#000000" font-weight="normal" font-style="normal" text-decoration="blink" font-family="Arial,宋体" text-anchor="middle" font-size="15" x="46.0" y="34.125">will effect in</text><text id="ProcessOnText1098" fill="#000000" font-weight="normal" font-style="normal" text-decoration="blink" font-family="Arial,宋体" text-anchor="middle" font-size="15" x="46.0" y="52.875">ner function</text></g></g><g id="ProcessOnG1099"><path id="ProcessOnPath1100" d="M275.0 242.0L275.0 273.5980762113533L354.0 273.5980762113533L354.0 301.19615242270663" stroke="#323232" stroke-width="2.0" stroke-dasharray="none" fill="none"/></g></g></g></svg>