<svg xmlns="http://www.w3.org/2000/svg" xmlns:xlink="http://www.w3.org/1999/xlink" id="processonSvg1000" viewBox="239.0 260.0 686.75 553.0" width="686.75" height="553.0"><defs id="ProcessOnDefs1001"><marker id="ProcessOnMarker1015" markerUnits="userSpaceOnUse" orient="auto" markerWidth="16.23606797749979" markerHeight="10.550836550532098" viewBox="-1.0 -1.3763819204711736 16.23606797749979 10.550836550532098" refX="-1.0" refY="3.8990363547948754"><path id="ProcessOnPath1016" d="M12.0 3.8990363547948754L0.0 7.798072709589751V0.0Z" stroke="#323232" stroke-width="2.0" fill="#323232" transform="matrix(1.0,0.0,0.0,1.0,0.0,0.0)"/></marker><marker id="ProcessOnMarker1019" markerUnits="userSpaceOnUse" orient="auto" markerWidth="16.23606797749979" markerHeight="10.550836550532098" viewBox="-1.0 -1.3763819204711736 16.23606797749979 10.550836550532098" refX="-1.0" refY="3.8990363547948754"><path id="ProcessOnPath1020" d="M12.0 3.8990363547948754L0.0 7.798072709589751V0.0Z" stroke="#323232" stroke-width="2.0" fill="#323232" transform="matrix(1.0,0.0,0.0,1.0,0.0,0.0)"/></marker><marker id="ProcessOnMarker1026" markerUnits="userSpaceOnUse" orient="auto" markerWidth="16.23606797749979" markerHeight="10.550836550532098" viewBox="-1.0 -1.3763819204711736 16.23606797749979 10.550836550532098" refX="-1.0" refY="3.8990363547948754"><path id="ProcessOnPath1027" d="M12.0 3.8990363547948754L0.0 7.798072709589751V0.0Z" stroke="#323232" stroke-width="2.0" fill="#323232" transform="matrix(1.0,0.0,0.0,1.0,0.0,0.0)"/></marker><marker id="ProcessOnMarker1051" markerUnits="userSpaceOnUse" orient="auto" markerWidth="16.23606797749979" markerHeight="10.550836550532098" viewBox="-1.0 -1.3763819204711736 16.23606797749979 10.550836550532098" refX="-1.0" refY="3.8990363547948754"><path id="ProcessOnPath1052" d="M12.0 3.8990363547948754L0.0 7.798072709589751V0.0Z" stroke="#323232" stroke-width="2.0" fill="#323232" transform="matrix(1.0,0.0,0.0,1.0,0.0,0.0)"/></marker><marker id="ProcessOnMarker1058" markerUnits="userSpaceOnUse" orient="auto" markerWidth="16.23606797749979" markerHeight="10.550836550532098" viewBox="-1.0 -1.3763819204711736 16.23606797749979 10.550836550532098" refX="-1.0" refY="3.8990363547948754"><path id="ProcessOnPath1059" d="M12.0 3.8990363547948754L0.0 7.798072709589751V0.0Z" stroke="#323232" stroke-width="2.0" fill="#323232" transform="matrix(1.0,0.0,0.0,1.0,0.0,0.0)"/></marker><marker id="ProcessOnMarker1065" markerUnits="userSpaceOnUse" orient="auto" markerWidth="16.23606797749979" markerHeight="10.550836550532098" viewBox="-1.0 -1.3763819204711736 16.23606797749979 10.550836550532098" refX="-1.0" refY="3.8990363547948754"><path id="ProcessOnPath1066" d="M12.0 3.8990363547948754L0.0 7.798072709589751V0.0Z" stroke="#323232" stroke-width="2.0" fill="#323232" transform="matrix(1.0,0.0,0.0,1.0,0.0,0.0)"/></marker><marker id="ProcessOnMarker1086" markerUnits="userSpaceOnUse" orient="auto" markerWidth="16.23606797749979" markerHeight="10.550836550532098" viewBox="-1.0 -1.3763819204711736 16.23606797749979 10.550836550532098" refX="-1.0" refY="3.8990363547948754"><path id="ProcessOnPath1087" d="M12.0 3.8990363547948754L0.0 7.798072709589751V0.0Z" stroke="#323232" stroke-width="2.0" fill="#323232" transform="matrix(1.0,0.0,0.0,1.0,0.0,0.0)"/></marker><marker id="ProcessOnMarker1093" markerUnits="userSpaceOnUse" orient="auto" markerWidth="16.23606797749979" markerHeight="10.550836550532098" viewBox="-1.0 -1.3763819204711736 16.23606797749979 10.550836550532098" refX="-1.0" refY="3.8990363547948754"><path id="ProcessOnPath1094" d="M12.0 3.8990363547948754L0.0 7.798072709589751V0.0Z" stroke="#323232" stroke-width="2.0" fill="#323232" transform="matrix(1.0,0.0,0.0,1.0,0.0,0.0)"/></marker><marker id="ProcessOnMarker1112" markerUnits="userSpaceOnUse" orient="auto" markerWidth="16.23606797749979" markerHeight="10.550836550532098" viewBox="-1.0 -1.3763819204711736 16.23606797749979 10.550836550532098" refX="-1.0" refY="3.8990363547948754"><path id="ProcessOnPath1113" d="M12.0 3.8990363547948754L0.0 7.798072709589751V0.0Z" stroke="#323232" stroke-width="2.0" fill="#323232" transform="matrix(1.0,0.0,0.0,1.0,0.0,0.0)"/></marker></defs><g id="ProcessOnG1002"><path id="ProcessOnPath1003" d="M239.0 260.0H925.75V813.0H239.0V260.0Z" fill="none"/><g id="ProcessOnG1004"><g id="ProcessOnG1005" transform="matrix(1.0,0.0,0.0,1.0,362.0,280.0)" opacity="1.0"><path id="ProcessOnPath1006" d="M0.0 0.0L76.0 0.0L76.0 42.0L0.0 42.0Z" stroke="#323232" stroke-width="2.0" stroke-dasharray="none" opacity="1.0" fill="#ffffff"/><g id="ProcessOnG1007" transform="matrix(1.0,0.0,0.0,1.0,10.0,12.875)"><text id="ProcessOnText1008" fill="#000000" font-weight="normal" font-style="normal" text-decoration="none" font-family="微软雅黑" text-anchor="middle" font-size="13" x="27.0" y="13.325">Position</text></g></g><g id="ProcessOnG1009" transform="matrix(1.0,0.0,0.0,1.0,340.0,376.0)" opacity="1.0"><path id="ProcessOnPath1010" d="M0.0 40.0L60.0 0.0L120.0 40.0L60.0 80.0L0.0 40.0Z" stroke="#323232" stroke-width="2.0" stroke-dasharray="none" opacity="1.0" fill="#ffffff"/><g id="ProcessOnG1011" transform="matrix(1.0,0.0,0.0,1.0,10.0,31.875)"><text id="ProcessOnText1012" fill="#000000" font-weight="normal" font-style="normal" text-decoration="none" font-family="微软雅黑" text-anchor="middle" font-size="13" x="49.0" y="13.325">Positioned?</text></g></g><g id="ProcessOnG1013"><path id="ProcessOnPath1014" d="M400.0 322.0L400.0 349.0L400.0 349.0L400.0 360.7639320225002" stroke="#323232" stroke-width="2.0" stroke-dasharray="none" fill="none" marker-end="url(#ProcessOnMarker1015)"/></g><g id="ProcessOnG1017"><path id="ProcessOnPath1018" d="M400.0 456.0L400.0 545.5L400.0 545.5L400.0 619.7639320225002" stroke="#323232" stroke-width="2.0" stroke-dasharray="none" fill="none" marker-end="url(#ProcessOnMarker1019)"/><g id="ProcessOnG1021" transform="matrix(1.0,0.0,0.0,1.0,400.0,529.7569660112501)"><path id="ProcessOnPath1022" d="M0 0H11.0V16.25H0Z" fill="#fff" transform="matrix(1.0,0.0,0.0,1.0,-5.5,0.0)"/><text id="ProcessOnText1023" fill="#000000" font-weight="normal" font-style="normal" text-decoration="none" font-family="微软雅黑" text-anchor="middle" font-size="13" x="0.0" y="13.325">N</text></g></g><g id="ProcessOnG1024"><path id="ProcessOnPath1025" d="M460.0 416.0L585.0 416.0L585.0 481.0139320225002" stroke="#323232" stroke-width="2.0" stroke-dasharray="none" fill="none" marker-end="url(#ProcessOnMarker1026)"/><g id="ProcessOnG1028" transform="matrix(1.0,0.0,0.0,1.0,555.0069660112501,407.875)"><path id="ProcessOnPath1029" d="M0 0H8.0V16.25H0Z" fill="#fff" transform="matrix(1.0,0.0,0.0,1.0,-4.0,0.0)"/><text id="ProcessOnText1030" fill="#000000" font-weight="normal" font-style="normal" text-decoration="none" font-family="微软雅黑" text-anchor="middle" font-size="13" x="0.0" y="13.325">Y</text></g></g><g id="ProcessOnG1031" transform="matrix(1.0,0.0,0.0,1.0,362.0,635.0)" opacity="1.0"><path id="ProcessOnPath1032" d="M0.0 0.0L76.0 0.0L76.0 42.0L0.0 42.0Z" stroke="#323232" stroke-width="2.0" stroke-dasharray="none" opacity="1.0" fill="#ffffff"/><g id="ProcessOnG1033" transform="matrix(1.0,0.0,0.0,1.0,10.0,12.875)"><text id="ProcessOnText1034" fill="#000000" font-weight="bold" font-style="normal" text-decoration="none" font-family="微软雅黑" text-anchor="middle" font-size="13" x="27.0" y="13.325">static</text></g></g><g id="ProcessOnG1035" transform="matrix(1.0,0.0,0.0,1.0,259.0,433.0)" opacity="1.0"><path id="ProcessOnPath1036" d="M0.0 0.0L73.0 0.0L73.0 93.0L0.0 93.0Z" stroke="#5c5c5c" stroke-width="1.0" stroke-dasharray="5.0 2.0" opacity="1.0" fill="#ffffff"/><g id="ProcessOnG1037" transform="matrix(1.0,0.0,0.0,1.0,10.0,5.875)"><text id="ProcessOnText1038" fill="#000000" font-weight="normal" font-style="normal" text-decoration="none" font-family="微软雅黑" text-anchor="middle" font-size="13" x="25.5" y="13.325">top</text><text id="ProcessOnText1039" fill="#000000" font-weight="normal" font-style="normal" text-decoration="none" font-family="微软雅黑" text-anchor="middle" font-size="13" x="25.5" y="29.575">bottom</text><text id="ProcessOnText1040" fill="#000000" font-weight="normal" font-style="normal" text-decoration="none" font-family="微软雅黑" text-anchor="middle" font-size="13" x="25.5" y="45.825">left</text><text id="ProcessOnText1041" fill="#000000" font-weight="normal" font-style="normal" text-decoration="none" font-family="微软雅黑" text-anchor="middle" font-size="13" x="25.5" y="62.075">right</text><text id="ProcessOnText1042" fill="#000000" font-weight="normal" font-style="normal" text-decoration="none" font-family="微软雅黑" text-anchor="middle" font-size="13" x="25.5" y="78.325">z-index</text></g></g><g id="ProcessOnG1043"><path id="ProcessOnPath1044" d="M332.0 479.5C355.2439049992066 479.5 359.07328764799513 455.6730768320811 368.89658637482574 434.60694473016" stroke="#5c5c5c" stroke-width="1.0" stroke-dasharray="5.0 2.0" fill="none"/></g><g id="ProcessOnG1045" transform="matrix(1.0,0.0,0.0,1.0,527.25,496.25)" opacity="1.0"><path id="ProcessOnPath1046" d="M0.0 39.75L57.75 0.0L115.5 39.75L57.75 79.5L0.0 39.75Z" stroke="#323232" stroke-width="2.0" stroke-dasharray="none" opacity="1.0" fill="#ffffff"/><g id="ProcessOnG1047" transform="matrix(1.0,0.0,0.0,1.0,10.0,31.625)"><text id="ProcessOnText1048" fill="#000000" font-weight="normal" font-style="normal" text-decoration="none" font-family="微软雅黑" text-anchor="middle" font-size="13" x="46.75" y="13.325">Natural Flow?</text></g></g><g id="ProcessOnG1049"><path id="ProcessOnPath1050" d="M527.25 536.0L482.625 536.0L482.625 656.0L453.2360679774998 656.0" stroke="#323232" stroke-width="2.0" stroke-dasharray="none" fill="none" marker-end="url(#ProcessOnMarker1051)"/><g id="ProcessOnG1053" transform="matrix(1.0,0.0,0.0,1.0,482.625,580.2569660112501)"><path id="ProcessOnPath1054" d="M0 0H8.0V16.25H0Z" fill="#fff" transform="matrix(1.0,0.0,0.0,1.0,-4.0,0.0)"/><text id="ProcessOnText1055" fill="#000000" font-weight="normal" font-style="normal" text-decoration="none" font-family="微软雅黑" text-anchor="middle" font-size="13" x="0.0" y="13.325">Y</text></g></g><g id="ProcessOnG1056"><path id="ProcessOnPath1057" d="M585.0 575.75L585.0 605.375L585.0 605.375L585.0 619.7639320225002" stroke="#323232" stroke-width="2.0" stroke-dasharray="none" fill="none" marker-end="url(#ProcessOnMarker1058)"/><g id="ProcessOnG1060" transform="matrix(1.0,0.0,0.0,1.0,585.0,589.6319660112501)"><path id="ProcessOnPath1061" d="M0 0H8.0V16.25H0Z" fill="#fff" transform="matrix(1.0,0.0,0.0,1.0,-4.0,0.0)"/><text id="ProcessOnText1062" fill="#000000" font-weight="normal" font-style="normal" text-decoration="none" font-family="微软雅黑" text-anchor="middle" font-size="13" x="0.0" y="13.325">Y</text></g></g><g id="ProcessOnG1063"><path id="ProcessOnPath1064" d="M642.75 536.0L667.625 536.0L667.625 536.0L677.2639320225002 536.0" stroke="#323232" stroke-width="2.0" stroke-dasharray="none" fill="none" marker-end="url(#ProcessOnMarker1065)"/><g id="ProcessOnG1067" transform="matrix(1.0,0.0,0.0,1.0,660.0069660112501,527.875)"><path id="ProcessOnPath1068" d="M0 0H11.0V16.25H0Z" fill="#fff" transform="matrix(1.0,0.0,0.0,1.0,-5.5,0.0)"/><text id="ProcessOnText1069" fill="#000000" font-weight="normal" font-style="normal" text-decoration="none" font-family="微软雅黑" text-anchor="middle" font-size="13" x="0.0" y="13.325">N</text></g></g><g id="ProcessOnG1070" transform="matrix(1.0,0.0,0.0,1.0,547.0,635.0)" opacity="1.0"><path id="ProcessOnPath1071" d="M0.0 0.0L76.0 0.0L76.0 42.0L0.0 42.0Z" stroke="#323232" stroke-width="2.0" stroke-dasharray="none" opacity="1.0" fill="#ffffff"/><g id="ProcessOnG1072" transform="matrix(1.0,0.0,0.0,1.0,10.0,12.875)"><text id="ProcessOnText1073" fill="#000000" font-weight="bold" font-style="normal" text-decoration="none" font-family="微软雅黑" text-anchor="middle" font-size="13" x="27.0" y="13.325">Relative</text></g></g><g id="ProcessOnG1074" transform="matrix(1.0,0.0,0.0,1.0,423.25,464.0)" opacity="1.0"><path id="ProcessOnPath1075" d="M0.0 0.0L111.0 0.0L111.0 40.0L0.0 40.0Z" stroke="#5c5c5c" stroke-width="1.0" stroke-dasharray="5.0 2.0" opacity="1.0" fill="#ffffff"/><g id="ProcessOnG1076" transform="matrix(1.0,0.0,0.0,1.0,10.0,3.75)"><text id="ProcessOnText1077" fill="#000000" font-weight="normal" font-style="normal" text-decoration="none" font-family="微软雅黑" text-anchor="middle" font-size="13" x="44.5" y="13.325">within </text><text id="ProcessOnText1078" fill="#000000" font-weight="normal" font-style="normal" text-decoration="none" font-family="微软雅黑" text-anchor="middle" font-size="13" x="44.5" y="29.575">padding</text></g></g><g id="ProcessOnG1079" transform="matrix(1.0,0.0,0.0,1.0,692.5,496.25)" opacity="1.0"><path id="ProcessOnPath1080" d="M0.0 39.75L54.25 0.0L108.5 39.75L54.25 79.5L0.0 39.75Z" stroke="#323232" stroke-width="2.0" stroke-dasharray="none" opacity="1.0" fill="#ffffff"/><g id="ProcessOnG1081" transform="matrix(1.0,0.0,0.0,1.0,10.0,23.5)"><text id="ProcessOnText1082" fill="#000000" font-weight="normal" font-style="normal" text-decoration="none" font-family="微软雅黑" text-anchor="middle" font-size="13" x="43.25" y="13.325">According to </text><text id="ProcessOnText1083" fill="#000000" font-weight="normal" font-style="normal" text-decoration="none" font-family="微软雅黑" text-anchor="middle" font-size="13" x="43.25" y="29.575">the Viewport?</text></g></g><g id="ProcessOnG1084"><path id="ProcessOnPath1085" d="M746.75 575.75L746.75 605.375L746.75 605.375L746.75 619.7639320225002" stroke="#323232" stroke-width="2.0" stroke-dasharray="none" fill="none" marker-end="url(#ProcessOnMarker1086)"/><g id="ProcessOnG1088" transform="matrix(1.0,0.0,0.0,1.0,746.75,589.6319660112501)"><path id="ProcessOnPath1089" d="M0 0H11.0V16.25H0Z" fill="#fff" transform="matrix(1.0,0.0,0.0,1.0,-5.5,0.0)"/><text id="ProcessOnText1090" fill="#000000" font-weight="normal" font-style="normal" text-decoration="none" font-family="微软雅黑" text-anchor="middle" font-size="13" x="0.0" y="13.325">N</text></g></g><g id="ProcessOnG1091"><path id="ProcessOnPath1092" d="M801.0 536.0L867.75 536.0L867.75 619.7639320225002" stroke="#323232" stroke-width="2.0" stroke-dasharray="none" fill="none" marker-end="url(#ProcessOnMarker1093)"/><g id="ProcessOnG1095" transform="matrix(1.0,0.0,0.0,1.0,867.75,536.3819660112501)"><path id="ProcessOnPath1096" d="M0 0H8.0V16.25H0Z" fill="#fff" transform="matrix(1.0,0.0,0.0,1.0,-4.0,0.0)"/><text id="ProcessOnText1097" fill="#000000" font-weight="normal" font-style="normal" text-decoration="none" font-family="微软雅黑" text-anchor="middle" font-size="13" x="0.0" y="13.325">Y</text></g></g><g id="ProcessOnG1098" transform="matrix(1.0,0.0,0.0,1.0,702.875,635.0)" opacity="1.0"><path id="ProcessOnPath1099" d="M0.0 0.0L87.75 0.0L87.75 42.0L0.0 42.0Z" stroke="#323232" stroke-width="2.0" stroke-dasharray="none" opacity="1.0" fill="#ffffff"/><g id="ProcessOnG1100" transform="matrix(1.0,0.0,0.0,1.0,10.0,12.875)"><text id="ProcessOnText1101" fill="#000000" font-weight="bold" font-style="normal" text-decoration="none" font-family="微软雅黑" text-anchor="middle" font-size="13" x="32.875" y="13.325">Absolute</text></g></g><g id="ProcessOnG1102"><path id="ProcessOnPath1103" d="M534.25 484.0C550.178086801044 484.0 555.8393248290946 499.0210986872031 559.9618170452509 514.4064490917054" stroke="#8a8a8a" stroke-width="1.0" stroke-dasharray="5.0 2.0" fill="none"/></g><g id="ProcessOnG1104" transform="matrix(1.0,0.0,0.0,1.0,829.75,635.0)" opacity="1.0"><path id="ProcessOnPath1105" d="M0.0 0.0L76.0 0.0L76.0 42.0L0.0 42.0Z" stroke="#323232" stroke-width="2.0" stroke-dasharray="none" opacity="1.0" fill="#ffffff"/><g id="ProcessOnG1106" transform="matrix(1.0,0.0,0.0,1.0,10.0,12.875)"><text id="ProcessOnText1107" fill="#000000" font-weight="bold" font-style="normal" text-decoration="none" font-family="微软雅黑" text-anchor="middle" font-size="13" x="27.0" y="13.325">Fixed</text></g></g><g id="ProcessOnG1108"><path id="ProcessOnPath1109" d="M623.0 656.0L662.9375 656.0L662.9375 656.0L702.875 656.0" stroke="#323232" stroke-width="2.0" stroke-dasharray="none" fill="none"/></g><g id="ProcessOnG1110"><path id="ProcessOnPath1111" d="M663.0 655.0L663.0 694.5L662.5 694.5L662.5 718.7639320225002" stroke="#323232" stroke-width="2.0" stroke-dasharray="none" fill="none" marker-end="url(#ProcessOnMarker1112)"/></g><g id="ProcessOnG1114" transform="matrix(1.0,0.0,0.0,1.0,586.0,734.0)" opacity="1.0"><path id="ProcessOnPath1115" d="M0.0 0.0L153.0 0.0L153.0 59.0L0.0 59.0Z" stroke="#323232" stroke-width="2.0" stroke-dasharray="none" opacity="1.0" fill="#ffffff"/><g id="ProcessOnG1116" transform="matrix(1.0,0.0,0.0,1.0,10.0,5.125)"><text id="ProcessOnText1117" fill="#000000" font-weight="normal" font-style="normal" text-decoration="none" font-family="微软雅黑" text-anchor="middle" font-size="13" x="65.5" y="13.325">Rely on the </text><text id="ProcessOnText1118" fill="#000000" font-weight="normal" font-style="normal" text-decoration="none" font-family="微软雅黑" text-anchor="middle" font-size="13" x="65.5" y="29.575">positioned block(with</text><text id="ProcessOnText1119" fill="#000000" font-weight="normal" font-style="normal" text-decoration="none" font-family="微软雅黑" text-anchor="middle" font-size="13" x="65.5" y="45.825">padding)</text></g></g></g></g></svg>