<svg id="drawing" xmlns="http://www.w3.org/2000/svg" version="1.1" xmlns:xlink="http://www.w3.org/1999/xlink" xmlns:svgjs="http://svgjs.com/svgjs" width="514" height="570" viewBox="209 130 514 570"><defs id="SvgjsDefs1001"></defs><g id="SvgjsG1007"><path id="SvgjsPath1008" d="M209 130H723V700H209V130Z " fill-opacity="0" fill="none"></path><g id="SvgjsG1009"><g id="SvgjsG1010" transform="translate(271 281)" opacity="1"><path id="SvgjsPath1011" d="M0 0L60 0L60 20L0 20Z " stroke-dasharray="none" stroke="#323232" stroke-width="2" fill="#ccffff" opacity="1"></path></g><g id="SvgjsG1012" transform="translate(259 301)" opacity="1"><path id="SvgjsPath1013" d="M0 0L84 0L84 20L0 20Z " stroke-dasharray="none" stroke="#323232" stroke-width="2" fill="#ccffff" opacity="1"></path></g><g id="SvgjsG1014" transform="translate(243 321)" opacity="1"><path id="SvgjsPath1015" d="M0 0L116 0L116 20L0 20Z " stroke-dasharray="none" stroke="#323232" stroke-width="2" fill="#ccffff" opacity="1"></path></g><g id="SvgjsG1016" transform="translate(229 341)" opacity="1"><path id="SvgjsPath1017" d="M0 0L144 0L144 20L0 20Z " stroke-dasharray="none" stroke="#323232" stroke-width="2" fill="#9999ff" opacity="1"></path></g><g id="SvgjsG1018"><path id="SvgjsPath1019" d="M301 281L301 215.5L301 215.5L301 150 " stroke-dasharray="none" stroke="#323232" stroke-width="2" fill="none"></path><g id="SvgjsG1020" transform="matrix(1 0 0 1 301 207.375)"><path id="SvgjsPath1021" d="M0 0H0V0H0V0Z " fill="#ffffff" transform="translate(0 0)"></path><text id="SvgjsText1022" font-family="Microsoft Yahei,SimSun" fill="#000000" font-size="13" font-weight="normal" font-style="normal" text-anchor="middle" text-decoration="blink" x="0" y="0"></text></g></g><g id="SvgjsG1023"><path id="SvgjsPath1024" d="M466 151L466 256L466 256L466 361 " stroke-dasharray="none" stroke="#323232" stroke-width="2" fill="none"></path><g id="SvgjsG1025" transform="matrix(1 0 0 1 466 247.875)"><path id="SvgjsPath1026" d="M0 0H0V0H0V0Z " fill="#ffffff" transform="translate(0 0)"></path><text id="SvgjsText1027" font-family="Microsoft Yahei,SimSun" fill="#000000" font-size="13" font-weight="normal" font-style="normal" text-anchor="middle" text-decoration="blink" x="0" y="0"></text></g></g><g id="SvgjsG1028"><path id="SvgjsPath1029" d="M631 150L631 255.5L631 255.5L631 361 " stroke-dasharray="none" stroke="#323232" stroke-width="2" fill="none"></path><g id="SvgjsG1030" transform="matrix(1 0 0 1 631 247.375)"><path id="SvgjsPath1031" d="M0 0H0V0H0V0Z " fill="#ffffff" transform="translate(0 0)"></path><text id="SvgjsText1032" font-family="Microsoft Yahei,SimSun" fill="#000000" font-size="13" font-weight="normal" font-style="normal" text-anchor="middle" text-decoration="blink" x="0" y="0"></text></g></g><g id="SvgjsG1033" transform="translate(436 585.5)" opacity="1"><path id="SvgjsPath1034" d="M0 0L60 0L60 20L0 20Z " stroke-dasharray="none" stroke="#323232" stroke-width="2" fill="#ccffff" opacity="1"></path></g><g id="SvgjsG1035" transform="translate(424 605.5)" opacity="1"><path id="SvgjsPath1036" d="M0 0L84 0L84 20L0 20Z " stroke-dasharray="none" stroke="#323232" stroke-width="2" fill="#ccffff" opacity="1"></path></g><g id="SvgjsG1037" transform="translate(408 625.5)" opacity="1"><path id="SvgjsPath1038" d="M0 0L116 0L116 20L0 20Z " stroke-dasharray="none" stroke="#323232" stroke-width="2" fill="#ccffff" opacity="1"></path></g><g id="SvgjsG1039" transform="translate(559 625.5)" opacity="1"><path id="SvgjsPath1040" d="M0 0L144 0L144 20L0 20Z " stroke-dasharray="none" stroke="#323232" stroke-width="2" fill="#9999ff" opacity="1"></path></g><g id="SvgjsG1041"><path id="SvgjsPath1042" d="M466 585.5L466 510.75L466 510.75L466 436 " stroke-dasharray="none" stroke="#323232" stroke-width="2" fill="none"></path><g id="SvgjsG1043" transform="matrix(1 0 0 1 466 502.625)"><path id="SvgjsPath1044" d="M0 0H0V0H0V0Z " fill="#ffffff" transform="translate(0 0)"></path><text id="SvgjsText1045" font-family="Microsoft Yahei,SimSun" fill="#000000" font-size="13" font-weight="normal" font-style="normal" text-anchor="middle" text-decoration="blink" x="0" y="0"></text></g></g><g id="SvgjsG1046"><path id="SvgjsPath1047" d="M301 434.5L301 539.5L301 539.5L301 644.5 " stroke-dasharray="none" stroke="#323232" stroke-width="2" fill="none"></path><g id="SvgjsG1048" transform="matrix(1 0 0 1 301 531.375)"><path id="SvgjsPath1049" d="M0 0H0V0H0V0Z " fill="#ffffff" transform="translate(0 0)"></path><text id="SvgjsText1050" font-family="Microsoft Yahei,SimSun" fill="#000000" font-size="13" font-weight="normal" font-style="normal" text-anchor="middle" text-decoration="blink" x="0" y="0"></text></g></g><g id="SvgjsG1051"><path id="SvgjsPath1052" d="M631 434.5L631 530L631 530L631 625.5 " stroke-dasharray="none" stroke="#323232" stroke-width="2" fill="none"></path><g id="SvgjsG1053" transform="matrix(1 0 0 1 631 521.875)"><path id="SvgjsPath1054" d="M0 0H0V0H0V0Z " fill="#ffffff" transform="translate(0 0)"></path><text id="SvgjsText1055" font-family="Microsoft Yahei,SimSun" fill="#000000" font-size="13" font-weight="normal" font-style="normal" text-anchor="middle" text-decoration="blink" x="0" y="0"></text></g></g><g id="SvgjsG1056" transform="translate(275.5 364)" opacity="1"><path id="SvgjsPath1057" d="M0 0L51 0L51 21L0 21Z " stroke-dasharray="none" stroke-width="0" stroke="#323232" fill="none" opacity="1"></path><g id="SvgjsG1058" transform="matrix(1 0 0 1 0 2.375)" fill="#ffffff"><text id="SvgjsText1059" font-family="微软雅黑,黑体,Arial,SimSun" fill="#000000" font-size="13" font-weight="normal" font-style="normal" text-anchor="middle" text-decoration="blink" x="25.5" y="15">SRC</text></g></g><g id="SvgjsG1060" transform="translate(454 363.5)" opacity="1"><path id="SvgjsPath1061" d="M0 0L24 0L24 22L0 22Z " stroke-dasharray="none" stroke-width="0" stroke="#323232" fill="none" opacity="1"></path><g id="SvgjsG1062" transform="matrix(1 0 0 1 0 -5.25)" fill="#ffffff"><text id="SvgjsText1063" font-family="微软雅黑,黑体,Arial,SimSun" fill="#000000" font-size="13" font-weight="normal" font-style="normal" text-anchor="middle" text-decoration="blink" x="12" y="15">AU</text><text id="SvgjsText1064" font-family="微软雅黑,黑体,Arial,SimSun" fill="#000000" font-size="13" font-weight="normal" font-style="normal" text-anchor="middle" text-decoration="blink" x="12" y="31.25">X</text></g></g><g id="SvgjsG1065" transform="translate(613 364)" opacity="1"><path id="SvgjsPath1066" d="M0 0L36 0L36 21L0 21Z " stroke-dasharray="none" stroke-width="0" stroke="#323232" fill="none" opacity="1"></path><g id="SvgjsG1067" transform="matrix(1 0 0 1 0 2.375)" fill="#ffffff"><text id="SvgjsText1068" font-family="微软雅黑,黑体,Arial,SimSun" fill="#000000" font-size="13" font-weight="normal" font-style="normal" text-anchor="middle" text-decoration="blink" x="18" y="15">DST</text></g></g><g id="SvgjsG1069" transform="translate(279.25 650.5)" opacity="1"><path id="SvgjsPath1070" d="M0 0L51 0L51 21L0 21Z " stroke-dasharray="none" stroke-width="0" stroke="#323232" fill="none" opacity="1"></path><g id="SvgjsG1071" transform="matrix(1 0 0 1 0 2.375)" fill="#ffffff"><text id="SvgjsText1072" font-family="微软雅黑,黑体,Arial,SimSun" fill="#000000" font-size="13" font-weight="normal" font-style="normal" text-anchor="middle" text-decoration="blink" x="25.5" y="15">SRC</text></g></g><g id="SvgjsG1073" transform="translate(457.75 650)" opacity="1"><path id="SvgjsPath1074" d="M0 0L24 0L24 22L0 22Z " stroke-dasharray="none" stroke-width="0" stroke="#323232" fill="none" opacity="1"></path><g id="SvgjsG1075" transform="matrix(1 0 0 1 0 -5.25)" fill="#ffffff"><text id="SvgjsText1076" font-family="微软雅黑,黑体,Arial,SimSun" fill="#000000" font-size="13" font-weight="normal" font-style="normal" text-anchor="middle" text-decoration="blink" x="12" y="15">AU</text><text id="SvgjsText1077" font-family="微软雅黑,黑体,Arial,SimSun" fill="#000000" font-size="13" font-weight="normal" font-style="normal" text-anchor="middle" text-decoration="blink" x="12" y="31.25">X</text></g></g><g id="SvgjsG1078" transform="translate(616.75 650.5)" opacity="1"><path id="SvgjsPath1079" d="M0 0L36 0L36 21L0 21Z " stroke-dasharray="none" stroke-width="0" stroke="#323232" fill="none" opacity="1"></path><g id="SvgjsG1080" transform="matrix(1 0 0 1 0 2.375)" fill="#ffffff"><text id="SvgjsText1081" font-family="微软雅黑,黑体,Arial,SimSun" fill="#000000" font-size="13" font-weight="normal" font-style="normal" text-anchor="middle" text-decoration="blink" x="18" y="15">DST</text></g></g></g></g></svg>